<svg width="24" height="24" viewBox="0 0 24 24" fill="none" xmlns="http://www.w3.org/2000/svg">
<path d="M10.0002 11.9492C11.0685 11.9492 12.1264 12.1595 13.1135 12.5684C14.1005 12.9772 14.9976 13.5766 15.7531 14.332C16.5085 15.0875 17.108 15.9847 17.5168 16.9717C17.7173 17.4559 17.8702 17.9576 17.9738 18.4688C18.152 19.3492 17.4073 20.0848 16.509 20.085L3.49138 20.085C2.59306 20.0848 1.84836 19.3492 2.02654 18.4688C2.13016 17.9576 2.28304 17.4559 2.48357 16.9717C2.89239 15.9847 3.49186 15.0875 4.24724 14.332C5.0027 13.5766 5.89984 12.9772 6.88689 12.5684C7.87392 12.1595 8.93182 11.9492 10.0002 11.9492ZM10.0002 3C12.2466 3.00002 14.0674 4.82099 14.0676 7.06738C14.0676 9.31394 12.2467 11.1357 10.0002 11.1357C7.7536 11.1357 5.93279 9.31395 5.93279 7.06738C5.93299 4.82098 7.75372 3 10.0002 3Z" fill="black"/>
<path opacity="0.5" d="M15.334 12.0615C15.943 12.1627 16.5402 12.331 17.1133 12.5684C18.1003 12.9772 18.9975 13.5766 19.7529 14.332C20.5083 15.0874 21.1078 15.9847 21.5166 16.9717C21.7171 17.4559 21.87 17.9576 21.9736 18.4688C22.1518 19.3492 21.4071 20.0848 20.5088 20.085H19.1514C19.4581 19.553 19.5919 18.9027 19.4434 18.1699C19.3206 17.5646 19.1398 16.9709 18.9023 16.3975C18.4181 15.2285 17.7082 14.1662 16.8135 13.2715C16.3608 12.8188 15.8647 12.4142 15.334 12.0615ZM14 3C16.2464 3.00002 18.0672 4.82099 18.0674 7.06738C18.0674 9.31394 16.2466 11.1357 14 11.1357C13.9345 11.1357 13.8694 11.1339 13.8047 11.1309C14.8889 10.1149 15.5674 8.67041 15.5674 7.06738C15.5673 5.46415 14.8891 4.01976 13.8047 3.00391C13.8694 3.00084 13.9345 3 14 3Z" fill="black"/>
</svg>
