<svg width="24" height="24" viewBox="0 0 24 24" fill="none" xmlns="http://www.w3.org/2000/svg">
<path d="M4.94706 2.06265C5.81255 1.99344 6.65195 2.37892 7.16386 3.08023C7.37321 3.36707 7.51171 3.74411 7.72441 4.30679L8.91386 7.45425C9.03091 7.76388 9.13927 8.03112 9.14531 8.30875C9.15014 8.53614 9.10285 8.76235 9.00761 8.9689C8.89121 9.22116 8.685 9.42318 8.4539 9.66031L8.09941 10.0236C7.75443 10.3776 7.69377 10.4547 7.66581 10.5285C7.63547 10.6089 7.62652 10.7126 7.64238 10.797C7.65719 10.8755 7.69888 10.9537 7.96171 11.34C8.57127 12.2358 9.20178 13.0185 10.1111 13.9279C11.0135 14.8303 11.7915 15.4585 12.6785 16.0636C13.0717 16.3318 13.1515 16.3742 13.2312 16.3888C13.3171 16.4045 13.4226 16.3944 13.5037 16.3625C13.5782 16.333 13.6556 16.2695 14.0096 15.9103L14.3309 15.5841C14.5681 15.3433 14.77 15.1292 15.0252 15.007C15.2341 14.907 15.4635 14.856 15.6951 14.8595C15.978 14.8639 16.251 14.9744 16.5672 15.0939L19.6932 16.2755C20.2557 16.4882 20.6329 16.6268 20.9197 16.8361C21.621 17.348 22.0066 18.1874 21.9373 19.0529C21.9089 19.4068 21.767 19.7828 21.5613 20.3478C21.4203 20.7352 21.3263 21.0012 21.1512 21.2628C20.945 21.5708 20.6373 21.8301 20.3143 22.0168C19.9911 22.2034 19.6119 22.3406 19.242 22.3654C18.9326 22.386 18.7205 22.3473 18.4129 22.2931C14.7611 21.6501 10.925 19.5699 7.67753 16.3224C4.43023 13.075 2.35002 9.23894 1.70683 5.58707C1.65261 5.27924 1.61388 5.06664 1.63456 4.75699C1.65939 4.38731 1.79574 4.00867 1.98222 3.6857C2.16885 3.36258 2.4291 3.05506 2.7371 2.84878C2.99872 2.67363 3.26482 2.5796 3.65214 2.43863C4.21714 2.23298 4.59318 2.09102 4.94706 2.06265Z" fill="black"/>
</svg>
