<svg width="24" height="24" viewBox="0 0 24 24" fill="none" xmlns="http://www.w3.org/2000/svg">
<path opacity="0.5" d="M22 12L12 2L2 12" stroke="black" stroke-width="1.5" stroke-linecap="round" stroke-linejoin="round"/>
<path d="M20 13V20C20 21.1046 19.1046 22 18 22H6C4.89543 22 4 21.1046 4 20V13L12 5L20 13ZM12 15C11.0681 15 10.6019 15.0001 10.2344 15.1523C9.74453 15.3553 9.35533 15.7445 9.15234 16.2344C9.0001 16.6019 9 17.0681 9 18V20H15V18C15 17.0681 14.9999 16.6019 14.8477 16.2344C14.6447 15.7445 14.2555 15.3553 13.7656 15.1523C13.3981 15.0001 12.9319 15 12 15Z" fill="black"/>
</svg>
