<svg width="653" height="113" viewBox="0 0 653 113" fill="none" xmlns="http://www.w3.org/2000/svg">
<path d="M78.75 0C109.816 0 135 25.184 135 56.25C135 87.316 109.816 112.5 78.75 112.5H56.25C25.184 112.5 0 87.316 0 56.25C0 25.184 25.184 0 56.25 0H78.75ZM236.25 0C248.913 0 260.599 4.18531 270 11.2471V0H292.5V112.5H270V101.253C260.599 108.315 248.913 112.5 236.25 112.5H213.75C182.684 112.5 157.5 87.316 157.5 56.25C157.5 25.184 182.684 0 213.75 0H236.25ZM427.5 15.9102L353.41 90H427.5V112.5H315V96.5898L389.09 22.5H315V0H427.5V15.9102ZM472.5 112.5H450V0H472.5V112.5ZM607.5 22.5H567.035C553.784 22.5 547.93 39.1866 558.277 47.4648C585.233 69.0294 569.985 112.5 535.465 112.5H495V90H535.465C548.716 90 554.57 73.3134 544.223 65.0352C517.267 43.4706 532.515 0 567.035 0H607.5V22.5ZM652.5 112.5H630V0H652.5V112.5ZM56.25 22.5C37.6104 22.5 22.5 37.6104 22.5 56.25C22.5 74.8896 37.6104 90 56.25 90H78.75C97.3896 90 112.5 74.8896 112.5 56.25C112.5 37.6104 97.3896 22.5 78.75 22.5H56.25ZM213.75 22.5C195.11 22.5 180 37.6104 180 56.25C180 74.8896 195.11 90 213.75 90H236.25C254.89 90 270 74.8896 270 56.25C270 37.6104 254.89 22.5 236.25 22.5H213.75Z" fill="black"/>
</svg>
