<svg width="24" height="24" viewBox="0 0 24 24" fill="none" xmlns="http://www.w3.org/2000/svg">
<path d="M2.76551 15.8276C2.50311 14.5155 2.37191 13.8595 2.54952 13.3461C2.7053 12.8958 3.01674 12.5159 3.42775 12.2748C3.89635 12 4.56536 12 5.90337 12H18.0966C19.4346 12 20.1036 12 20.5722 12.2748C20.9833 12.5159 21.2947 12.8958 21.4505 13.3461C21.6281 13.8595 21.4969 14.5155 21.2345 15.8276L20.5145 19.4276C20.3312 20.3439 20.2396 20.8021 20.0004 21.1448C19.7894 21.447 19.499 21.685 19.1613 21.8326C18.7783 22 18.3111 22 17.3766 22H6.62337C5.6889 22 5.22166 22 4.83869 21.8326C4.50097 21.685 4.2106 21.447 3.99964 21.1448C3.76041 20.8021 3.66878 20.3439 3.48551 19.4276L2.76551 15.8276Z" fill="black"/>
<path opacity="0.25" d="M7 4H17" stroke="black" stroke-width="1.5" stroke-linecap="round"/>
<path opacity="0.5" d="M16.7998 6C17.9199 6 18.4804 5.99979 18.9082 6.21777C19.2845 6.40951 19.5905 6.71554 19.7822 7.0918C20.0002 7.51962 20 8.08009 20 9.2002V9.80859C19.9511 9.80334 19.9033 9.79707 19.8564 9.79297C19.3425 9.74805 18.7251 9.75 18.0967 9.75H5.90332C5.2749 9.75 4.65748 9.74805 4.14355 9.79297C4.09666 9.79707 4.04889 9.80334 4 9.80859V9.2002C4 8.08009 3.99979 7.51962 4.21777 7.0918C4.40951 6.71555 4.71555 6.40951 5.0918 6.21777C5.51962 5.99979 6.08009 6 7.2002 6H16.7998Z" fill="black"/>
</svg>
